PathFileType	4	(X/Y/Z)	Patient5_TMGait_0pt45_1_left_05.trc.trc
DataRate	CameraRate	NumFrames	NumMarkers	Units	OrigDataRate	OrigDataStartFrame	OrigNumFrames
57.851239669421	57.851239669421	5	32	mm	57.851239669421	36	       141
Frame#	Time	R.ASIS			L.ASIS			Chest			R.Shoulder			Neck			L.Shoulder			L.Elbow			L.Wrist			R.Elbow			R.Wrist			L.Thigh.Superior			L.Thigh.Lateral			L.Thigh.Inferior			L.Patella			L.Shank.Superior			L.Shank.Lateral			L.Shank.Inferior			L.Heel			L.Midfoot.Lateral			L.Midfoot.Superior			L.Toe			R.Thigh.Superior			R.Thigh.Lateral			R.Thigh.Inferior			R.Patella			R.Shank.Superior			R.Shank.Lateral			R.Shank.Inferior			R.Heel			R.Midfoot.Lateral			R.Midfoot.Superior			R.Toe			
		X1	Y1	Z1	X2	Y2	Z2	X3	Y3	Z3	X4	Y4	Z4	X5	Y5	Z5	X6	Y6	Z6	X7	Y7	Z7	X8	Y8	Z8	X9	Y9	Z9	X10	Y10	Z10	X11	Y11	Z11	X12	Y12	Z12	X13	Y13	Z13	X14	Y14	Z14	X15	Y15	Z15	X16	Y16	Z16	X17	Y17	Z17	X18	Y18	Z18	X19	Y19	Z19	X20	Y20	Z20	X21	Y21	Z21	X22	Y22	Z22	X23	Y23	Z23	X24	Y24	Z24	X25	Y25	Z25	X26	Y26	Z26	X27	Y27	Z27	X28	Y28	Z28	X29	Y29	Z29	X30	Y30	Z30	X31	Y31	Z31	X32	Y32	Z32	

36	7.405000000000	945.524400069656	975.099582869660	573.119006265236	986.568402224777	957.056287308876	338.329084795225	1055.274771249433	1431.385544536396	468.694265200792	936.212330532398	1500.052569759069	620.373256095614	932.917416884678	1555.581950137252	432.145223418875	1022.098416861388	1496.617393868732	263.878907863602	936.247560218866	1183.969316017518	128.432658022487	1042.665193742968	917.002846795135	135.666376557506	830.494224625878	1184.372333362026	752.787846813693	1037.379030359544	982.031053303080	727.854076137647	1037.319604211842	755.328616607080	332.320634398644	986.694564557025	672.840715655211	283.762662316334	1057.677331984199	632.553568145486	363.991181072792	1079.713321934005	517.631273271685	376.665347158273	1041.789032603635	408.587372945191	387.914155912887	998.955762489273	334.176995538288	299.497870832029	1020.410704262555	282.606921991041	389.845259004038	909.264591336865	49.565270080553	378.470063941361	998.312450020926	28.066019721595	317.492924994712	1094.324430598152	89.637391033635	365.028532690971	1202.971896774089	45.662177907991	366.331887808708	926.033693551143	740.594716048310	602.705612482525	820.450972875856	676.910242258713	638.560929899492	903.586712345134	607.862248183484	583.976412821261	879.700446065744	507.678791753283	613.842636347307	807.778606749457	417.880032570703	567.157188190537	705.027388647529	383.008397385334	634.718423252280	742.691399950213	294.118110376130	562.671142013501	550.925844614977	115.397099068239	512.717092678886	610.712721194196	60.442298264426	588.740416282323	730.195713714799	95.315837374146	583.430591720066	815.957735573339	41.409045445651	584.623851525121	
37	7.422285714286	945.320184635799	977.181673484881	569.253349510709	987.847230012687	957.742734971944	335.143678030782	1056.645429595553	1432.212556887616	466.329409408969	935.833101450501	1501.218242052809	616.357769436979	935.273411369678	1556.980489269189	428.059359863655	1027.093992119969	1497.894575016493	261.349321125176	944.113388470383	1185.445909401305	123.817280244976	1052.831323896544	919.561806951711	133.464157302404	828.291858807096	1185.648581139989	747.482760316487	1034.652277618144	982.679743705446	724.213722875437	1036.235316570154	754.716084409792	330.128432880117	985.056559166172	672.749477340556	281.214140643131	1054.666303924950	631.702075813206	362.197932590915	1075.107641588914	516.805269587575	375.239390956664	1036.457562508383	408.163663203961	386.710487010020	993.689644428193	333.616102107091	298.461304721782	1014.125739556104	282.374281128022	389.088415976915	901.672126061755	49.588281315609	378.299315478392	990.762842668731	28.067658784568	317.427037391775	1086.688460383932	89.550367042438	365.153846317020	1195.440608020436	45.584869793614	366.386707328724	930.221493055300	743.956926127081	603.750118112363	826.835787915629	678.282517204237	638.963992069284	911.997909955613	610.115127644198	585.975023002991	889.174536433623	508.815300421032	616.692178651660	814.526985218637	418.833079871719	569.900838002506	710.815550738178	386.686740458869	637.594880434144	745.504597102505	297.058649862724	565.059752808200	548.285422578333	126.458645281104	514.837859465990	605.750104677316	67.721367335634	589.834102350654	726.629619086253	97.687425270901	585.287261212293	809.698621306242	41.397071300914	585.174278026143	
38	7.439571428571	944.913902667434	979.188528777560	565.363784713225	988.685188191437	958.416589419059	331.896714014788	1057.589128375143	1432.860117489221	463.930238739456	935.179790416749	1502.197578747833	612.410450581660	937.237931675373	1558.224235776674	424.131972559954	1031.512943820902	1499.052646931758	258.926806876516	952.074252354531	1186.734879034858	119.220331397920	1063.066609098218	921.972269883027	131.305928083746	826.088996350106	1186.584201136986	742.117486977408	1032.026498108908	983.072598140171	720.670546926293	1034.837045915565	754.216410612278	328.058419461344	983.190656568805	672.769521816898	278.764698045077	1051.508405480907	630.924258393086	360.382416873563	1070.368320515304	516.031423821983	373.673239887935	1031.023068948994	407.759328566744	385.399465054466	988.207364504270	333.087704456122	297.335057412101	1007.743704647065	282.148469956442	388.238455637790	893.960577001031	49.623318274244	378.138415219557	983.080282228022	28.065237479043	317.349342292301	1078.945588504470	89.441812350892	365.233192579165	1187.773102704947	45.499125252651	366.425348297502	934.448878100285	747.511506959612	604.962553694903	833.548519343400	679.749316583361	639.734140063768	920.616417636916	612.621411869878	588.126256501539	898.968690731587	510.233063145706	619.680419807326	821.779037163068	420.221085402862	572.892378912613	717.259083983984	390.669737579657	640.874456465585	748.873909936602	300.444362310039	567.634948757734	546.587265355294	138.348221700077	517.260681878296	601.442958494764	75.840068912686	591.160233358893	723.597935895668	100.645690100792	587.310712429850	803.895869119036	41.374176870395	585.970743696364	
39	7.456857142857	944.412889381026	981.183851613211	561.538545265744	989.157592444327	959.108154075406	328.575825948418	1058.097698174842	1433.412536558692	461.510014547400	934.225099237655	1503.040243994246	608.559397820813	938.776539207076	1559.349290991498	420.415369728200	1035.225592851210	1500.146695647061	256.602343308051	959.946338150140	1187.846073189179	114.775403845596	1073.269806262877	924.272451202234	129.154990265076	823.778658316625	1187.236811588762	736.708655301929	1029.468822423199	983.328985532122	717.206862792611	1033.220194114783	753.761124872780	325.914633741944	981.054120987067	672.822272191152	276.384686396956	1048.280497107959	630.197116158911	358.464336340965	1065.609970210953	515.309383343068	372.009517771136	1025.585354376730	407.373445621545	384.055838926047	982.596637244559	332.600503389727	296.192349653307	1001.330962354683	281.933802614307	387.358310240930	886.157963953145	49.657293107859	377.994005555716	975.291537318886	28.064574016069	317.262526651606	1071.116133552973	89.331504182027	365.265893760444	1180.000058183293	45.423379483503	366.421583108300	938.641756671759	751.219702618679	606.021686422107	840.325268342111	681.447482912522	640.754762150706	929.133737020140	615.437625246111	590.318598299050	908.724820821146	512.049511894668	622.713369424564	829.273239800758	422.130634573844	576.023976616624	724.071328136150	394.978083051666	644.393986628379	752.664342351907	304.287543387867	570.307764737961	545.897584961057	150.905573780323	519.913631745690	597.842370948124	84.724903328035	592.687019595961	721.112625651942	104.157656836623	589.455041295558	798.514018489714	41.285220255173	586.995606137093	
40	7.474142857143	943.954219699194	983.250144955521	557.894969183681	989.339547900828	959.828813105417	325.167809429353	1058.185185369838	1433.942535700878	459.082181469706	932.957183417494	1503.780741274596	604.827495814868	939.872983870300	1560.389993758361	416.944634146491	1038.169685026244	1501.239257388385	254.364905873167	967.505745780346	1188.817786761151	110.601657426140	1083.316654188508	926.535173764393	126.969607029069	821.292707321633	1187.666378247314	731.301919372475	1026.956683830507	983.561652695711	713.779936094283	1031.447471121033	753.285878874691	323.560312061852	978.603783137973	672.834519748602	274.049078788114	1045.011917619863	629.484427770891	356.386087422427	1060.885868845597	514.627656258440	370.277168028698	1020.192216818533	407.000061519669	382.733748710205	976.907465325119	332.152066746673	295.087604110209	994.925943604317	281.733470462172	386.496042026003	878.298091159988	49.681828722975	377.871348954934	967.432810951863	28.067499895205	317.175342922086	1063.228766576840	89.234012678971	365.261209142468	1172.157836948852	45.371979484724	366.372225531320	942.752729642664	754.999612583439	606.580633411086	846.914414364906	683.467793327424	641.898535637445	937.280667737266	618.575248825630	592.453255468373	918.127334326264	514.321876738187	625.705790574845	836.743423720674	424.569100711490	579.185127938505	730.971167910484	399.579044044426	648.004544871107	756.720489441137	308.544425150970	573.012852054877	546.197150423508	163.917775107005	522.760557287804	594.938576822891	94.230871105190	594.397070652493	719.128277680924	108.119276256009	591.670254348815	793.427120951209	41.076146749866	588.181010136511	
